<svg xmlns="http://www.w3.org/2000/svg" viewBox="0 0 180 180" role="img" aria-label="RoadRunners">
  <rect width="180" height="180" rx="40" fill="#d97706"/>
  <g fill="#ffffff">
    <path d="M46 75.5 50.5 46 57.5 68 64.5 41.5 71.5 72 77.5 51 83.5 80Z"/>
    <path d="M52 86c10-5.5 23-6.5 35-.5l21.5 10c5.5 2.8 4 12.5-4 13.5l-16.5 1.2c-12.5-.5-24.5-5-32.5-12.5-5-4.5-6-10.5-3.5-11.5Z"/>
    <path d="M72 97c27-2.5 48.5 12.5 57.5 37 3.5 8.5-2 17.5-11.5 15.5-23-3.5-39-14.5-48.5-31.5-5-8.5-.5-18.5 12.5-21Z"/>
    <path d="M57.5 105c-18 6.5-26 21.5-19 35 8-5.5 13.5-14 18-23.5 2-5 3-9.5 1-11Z"/>
    <path d="M85.5 134 73.5 154.5 89 158 95.5 138.5Z"/>
    <path d="M107.5 131 97 153 112.5 157 121 136.5Z"/>
    <circle cx="123 78" r="5"/>
  </g>
</svg>
