<svg xmlns="http://www.w3.org/2000/svg" viewBox="0 0 32 32" role="img" aria-label="RoadRunners">
  <rect width="32" height="32" rx="8" fill="#d97706"/>
  <g fill="#ffffff">
    <path d="M8.2 13.4 9 8.2 10.2 12.1 11.4 7.4 12.6 12.8 13.6 9.1 14.4 14.2Z"/>
    <path d="M9.2 15.2c1.8-1 4.1-1.1 6.2-.1l3.8 1.8c1 .5.7 2.2-.7 2.4l-2.9.2c-2.2-.1-4.3-.9-5.8-2.2-.9-.8-1.1-1.9-.6-2.1Z"/>
    <path d="M12.8 17.2c4.8-.4 8.6 2.2 10.2 6.6.6 1.5-.4 3.1-2.1 2.8-4.1-.6-7-2.6-8.6-5.6-.9-1.5-.1-3.3 2.5-3.8Z"/>
    <path d="M10.2 18.6c-3.2 1.2-4.6 3.8-3.4 6.2 1.4-1 2.4-2.5 3.2-4.2.4-.9.5-1.7.2-2Z"/>
    <path d="M15.2 23.8 13.1 27.4 15.8 28 17.4 24.6Z"/>
    <path d="M19.1 23.2 17.4 27.1 20.2 27.8 21.4 24.2Z"/>
    <circle cx="21.8" cy="13.8" r=".9"/>
  </g>
</svg>
