<svg xmlns="http://www.w3.org/2000/svg" viewBox="0 0 64 64" fill="none" aria-hidden="true">
  <!-- RoadRunners mark — stroke-only, Ollama grammar. Bird in profile, running right. -->
  <path d="M5 38h8M3 42h10" stroke="currentColor" stroke-width="1.5" stroke-linecap="round" opacity="0.22"/>
  <path d="M22 34C13 31 7 24 6 15" stroke="currentColor" stroke-width="1.5" stroke-linecap="round" stroke-linejoin="round"/>
  <path d="M22 34C12 36 6 31 5 23" stroke="currentColor" stroke-width="1.5" stroke-linecap="round" stroke-linejoin="round"/>
  <path d="M22 34C14 40 7 39 6 33" stroke="currentColor" stroke-width="1.5" stroke-linecap="round" stroke-linejoin="round"/>
  <path d="M22 34c6-6 14-10 22-12c5-1 9 1 8 6" stroke="currentColor" stroke-width="1.5" stroke-linecap="round" stroke-linejoin="round"/>
  <path d="M52 28c1 5-3 10-9 12c-6 2-12 0-15-4" stroke="currentColor" stroke-width="1.5" stroke-linecap="round" stroke-linejoin="round"/>
  <path d="M32 28c2 3 2 7 0 9" stroke="currentColor" stroke-width="1.5" stroke-linecap="round"/>
  <path d="M38 17 36 10M40 16v-7M42 17l2-6" stroke="currentColor" stroke-width="1.5" stroke-linecap="round"/>
  <path d="M52 28 58 27" stroke="currentColor" stroke-width="1.5" stroke-linecap="round"/>
  <circle cx="46" cy="24" r="1.25" stroke="currentColor" stroke-width="1.5"/>
  <path d="M34 38l5 10 5 2M30 39l-5 10-5-2" stroke="currentColor" stroke-width="1.5" stroke-linecap="round" stroke-linejoin="round"/>
  <path d="M44 50l4 1M20 47l-4 1" stroke="currentColor" stroke-width="1.5" stroke-linecap="round"/>
</svg>
